<svg id="Layer_1" data-name="Layer 1" xmlns="http://www.w3.org/2000/svg" viewBox="0 0 778.5 913.5"><defs><style>.cls-1{fill:#dee2e3;}.cls-2{fill:#efda4f;}.cls-3{fill:#afc4cb;}.cls-4{fill:#ba8575;}.cls-5{fill:#ddc44a;}.cls-6{fill:#4e6f7d;}.cls-7{fill:#005278;}.cls-8{fill:#96aaad;}.cls-9{fill:#798f94;}.cls-10{fill:#004567;}.cls-11{fill:#97abae;}.cls-12{fill:#0a0b0e;}.cls-13{fill:#3c3735;}.cls-14{fill:#798e93;}.cls-15{fill:#223a44;}.cls-16{fill:#332f2d;}.cls-17{fill:#c6ab38;}.cls-18{fill:#aa7a6b;}.cls-19{fill:#9c7062;}.cls-20{fill:#112932;}.cls-21{fill:#2b2625;}.cls-22{fill:#1a1b1e;}.cls-23{fill:#122932;}.cls-24{fill:#233b45;}.cls-25{fill:#7a9095;}.cls-26{fill:#98abae;}.cls-27{fill:#2a2626;}.cls-28{fill:#0b0d10;}.cls-29{fill:#121113;}.cls-30{fill:#2e4853;}.cls-31{fill:#59737a;}.cls-32{fill:#aec4c6;}.cls-33{fill:#242021;}.cls-34{fill:#f9fafa;}.cls-35{fill:#a67869;}.cls-36{fill:#a27769;}.cls-37{fill:#304a55;}.cls-38{fill:#acc2c5;}.cls-39{fill:#aa796a;}.cls-40{fill:#a3686a;}.cls-41{fill:#ad7675;}.cls-42{fill:#a9786a;}.cls-43{fill:#0e0e11;}.cls-44{fill:#0f0f12;}.cls-45{fill:#132a33;}.cls-46{fill:#ba8574;}.cls-47{fill:#b98574;}.cls-48{fill:#5a5c61;}.cls-49{fill:#fdfdfd;}.cls-50{fill:#f7f8f8;}.cls-51{fill:#f5f6f7;}.cls-52{fill:#fefefe;}.cls-53{fill:#fcfdfd;}.cls-54{fill:#ab7a6b;}.cls-55{fill:#fdfdfc;}.cls-56{fill:#fcfcfc;}.cls-57{fill:#fbfcfc;}.cls-58{fill:#879ea5;}.cls-59{fill:#869ba1;}.cls-60{fill:#82989e;}.cls-61{fill:#80969d;}.cls-62{fill:#8a9ea4;}.cls-63{fill:#869ca2;}.cls-64{fill:#93a8ad;}.cls-65{fill:#889ca2;}.cls-66{fill:#7c9298;}.cls-67{fill:#83969c;}.cls-68{fill:#7f949a;}.cls-69{fill:#879ea6;}.cls-70{fill:#93a8ae;}.cls-71{fill:#869da5;}.cls-72{fill:#8ca3a9;}.cls-73{fill:#84999f;}.cls-74{fill:#758d97;}.cls-75{fill:#78909a;}.cls-76{fill:#78919a;}.cls-77{fill:#7e969e;}.cls-78{fill:#8da4ab;}.cls-79{fill:#80969e;}.cls-80{fill:#98aaad;}.cls-81{fill:#97aaac;}.cls-82{fill:#2b413d;}.cls-83{fill:#3d4e4b;}.cls-84{fill:#97acb1;}.cls-85{font-size:52.72px;fill:#1c1a0f;font-family:ArialNarrow-Bold, Arial;font-weight:700;}</style></defs><title>Artboard 1</title><path class="cls-1" d="M677.4,440.9c-2.29,4.57.1,6.33,4,8.49C697,458,712.24,467.17,727.67,476a3.68,3.68,0,0,1,2.22,3.83,51.9,51.9,0,0,0,0,7.11c.21,2.5-.67,4.08-3.06,4.82-1.06,0-1-.71-.57-1.16,2.84-3,1.62-6.56,1.88-9.85-1.35-.79-2.13.11-2.91.57-30.73,18-61.62,35.67-92.46,53.46-35.16,20.29-70.26,40.69-105.5,60.85-5.85,3.35-11.78,6.59-17.47,10.21-2.94,1.87-5.41,1.73-8.31,0-16.71-9.79-33.53-19.37-50.3-29Q392.6,543,334,509.32,289,483.4,244,457.51,182.79,422.26,121.59,387c-24.58-14.13-49.14-28.3-74-42.66,0,4.11-.91,8.11,2.4,11.36.61.6.57,1.63.65,2.51a72.4,72.4,0,0,1,.16,7.5q0,125.47,0,250.94c0,4.34-.63,8.84,3.76,11.8.39.26.32.91.15,1.41-5.82-2.17-5.87-2.25-5.87-8.27q0-129.93,0-259.87c0-2.54.23-4.86-2.16-7.06-2.06-1.89-.46-5.26-.84-7.94-.43-3.05.58-4.82,3.51-6.44,24.09-13.33,48-26.9,72-40.4q38.59-21.72,77.18-43.46,34.67-19.54,69.3-39.15c3.84-2.18,6.93-3.25,11.49-.44,15.14,9.36,30.72,18,46.14,26.92q22.81,13.17,45.64,26.3,22.48,13,44.93,26,15.2,8.8,30.43,17.53a7,7,0,0,0,2.17.43c-.34,1.94-2.08,1.92-3.41,2.29a67.09,67.09,0,0,1-21.31,2.43c-3.42-.23-6-2.44-8.76-4-38.41-21.95-76.67-44.14-115-66.29-3-1.74-5.54-1.87-8.23.34-1.83,1.51-4.14,2.34-5.85,4-1.44,1.64-1.51,3.64-1.51,5.66q0,60.52,0,121c0,5.45,2.57,9.34,7.07,11.95q36.63,21.23,73.32,42.36,29.37,16.94,58.71,33.95c2.78,1.61,5.42,2.62,8.31.43a12,12,0,0,1,10-3c3.79.59,7.37-.88,10.65-2.84,29.63-17.73,59.1-35.74,88.78-53.4,2.08-1.24,3.89-2.71,4.69-5.11,1-3.43.55-6.88.08-10.31-.3-2.14-1.78-3.42-3.54-4.51-5.8-3.57-11.82-6.79-17.65-10.3-1.46-.88-3.15-1.54-3.88-3.3,2.38-3.38,6-4.46,9.77-5.17,2.94.79,5.61-.09,8.23-1.31a5.36,5.36,0,0,1,3.21-.65c7.66,3.63,14.75,8.28,22.08,12.49q22.84,13.1,45.6,26.34c6.09,3.46,12.1,7.07,18.21,10.51q19.37,11.29,38.84,22.42c.92.62,2,1,2.87,1.69,2.5,1.83,4.76,2.64,6.51-.89C676.6,440.57,677.09,440.6,677.4,440.9Z"/><path class="cls-2" d="M596.23,148.95c15.23,6.83,28,17.41,41.11,27.37,6.63,5,13.1,10.28,18.29,16.9.42,1.41,2.79,2.22,2,3.64-.88,1.68-3,.59-4.49.51-6.07-.34-10.89,2.4-15.07,6.34-8.44,7.95-12.38,18.18-14.42,29.32-1,5.69-.85,11.42-.78,17.14.14,10.14-1.62,20.08-2.92,30.07,0,.62-.09,1.23-.1,1.85-.85,11.42-2.33,22.78-3.13,34.21-.23,3.33-2.25,5-5.29,6-12.84,4-25.64,8.18-38.49,12.18-5.48,1.7-10.9,3.55-16.35,5.32a13.77,13.77,0,0,1-4.7,1.11c-5.61-2-11.33-3.7-16-7.6a11.12,11.12,0,0,1-2.67-3.09c-1.49-4.31-1.23-8.86-1.66-13.3-.35-3.59-.68-7.19-1.14-10.77-1-10.64-4.91-20.52-7.94-30.63-1.21-4.05-2.16-8.18-3.46-12.2-.36-1.63-.84-3.23-1.19-4.86-6-22.34-9.11-45.05-8-68.22a79.34,79.34,0,0,1,2.64-17c.5-1.86,1.16-3.57,2.88-4.65,8.92-6.19,19-9.83,29.27-12.88,2.92-.46,2.22,2.21,3.08,3.54,1.7,6.11,3.31,12.26,5.3,18.28,1.74,5.26,4.51,7.19,9.92,7.33,11,.3,18.79-4.88,24.07-14.13,3.17-5.55,4.8-11.72,6.48-17.85C593.9,151.26,593.83,149.18,596.23,148.95Z"/><path class="cls-3" d="M49.66,356.86c-4.47-3.71-2.77-8.77-3.13-14.09,5.33,3,10.25,5.75,15.13,8.55q26.42,15.19,52.82,30.42l55.39,32q26.08,15,52.17,30.06l52.19,30q26.09,15,52.19,30,25.27,14.57,50.52,29.17,26.08,15,52.18,30l52.18,30c7.35,4.23,14.71,8.43,22,12.71a4.1,4.1,0,0,0,4.74,0q30.69-17.9,61.48-35.62c20.41-11.77,40.87-23.46,61.28-35.24Q660.45,517.8,690,500.58q17.64-10.22,35.31-20.37c1.05-.6,2.21-1,3.63-1.68,0,4.8,1.34,9.38-2.13,13.25q0,133.7.08,267.39c0,2.92-.95,4.48-3.78,4.9,2.65-6.17,1.73-12.69,1.73-19.1q.06-121.43,0-242.87c0-7.44,0-7.44-6.45-4-1.16.49-2.07,1.4-3.21,1.92-2.73,1.25-3.82,3.39-3.68,6.32.07,1.49,0,3,0,4.49q0,117.62,0,235.24c0,6-.83,12.18,1.76,18-3.46-.44-3.76-2.74-3.76-5.68q.09-125.93,0-251.86v-4.78c-5.19,2.92-10,5.57-14.77,8.32q-38.55,22.23-77.07,44.53c-2.45,1.42-5.14,2.55-7.16,4.65-2.77,3.54-7.19,4.6-10.67,7.09-1,.71-2.19,1.14-3.22,1.83-4.27,2.52-8.55,5-12.88,7.44-3.46,2-7,3.92-10.36,6-1.74,1.16-3.71,1.92-5.43,3.12-8.27,4.6-16.33,9.56-24.59,14.17-3,1.13-5.13,4.08-8.69,3.88q-9.46,5.3-18.92,10.59a3.52,3.52,0,0,0-2,3.66c.08,1,0,2,0,3q0,131.33-.05,262.65c0,1.49,1.17,3.63-1.39,4.43-.76-1.12-.56-2.4-.56-3.63q.1-129.41,0-258.83c0-.75,0-1.5,0-2.25,0-4.54,0-4.54-4.26-2.69-4.56.73-7.64-1.67-10.3-4.93-4.16-2.53-8-5.61-12.88-6.86-5.63-2-10.37-5.65-15.59-8.4-1.85-1-3.67-2-5.52-3-12-7.21-24.21-14-36.28-21.06-1.18-.69-2.48-1.22-3.13-2.56-2.48-2.93-6.11-4.09-9.27-5.94-5.43-3.19-10.68-6.73-16.55-9.15-1.5.38-2.66-.46-3.81-1.16-7.15-4.31-14.46-8.34-21.68-12.51-13.94-8-27.61-16.38-41.84-23.82-.89-3.14-3.83-4-6.19-5.37-13.09-7.62-26.27-15.09-39.38-22.7-2.29-1.33-3.27-1.34-3.14,1.7.15,3.48,0,7,0,10.45,0,1.64-.22,3-2.24,3.2,0-3.18.23-6.39.55-9.52.54-5.33-1.4-8.77-6.26-10.73-2.36-1-4.39-2.77-7.1-3.58-.85,3.23-.26,6.34-.44,9.4-.27,4.57.51,9.17-.32,13.72-2-.51-1.34-2.16-1.35-3.4-.06-6.62-.1-13.24,0-19.86a4.41,4.41,0,0,0-2.56-4.44q-48.8-28-97.53-56.19-37.56-21.69-75.09-43.44c-7-4.05-14.07-8-21.09-12.09-1.82-1-2.77-.89-2.61,1.48.07,1,0,2,0,3q0,125.74,0,251.47c0,2.31.25,4.65-3,5,1.69-7.62,1-15.36,1-23q.07-116.09.1-232.18c0-4.29-.89-7.57-4.94-9.48C56.27,361.11,52,360.38,49.66,356.86Z"/><path class="cls-4" d="M519.83,263c3.58,13,8.68,25.54,11.07,38.86a23.33,23.33,0,0,1,.09,3.7c.38,4.58-.84,8.91-2.13,13.21-1,3.45-4,4.68-7.09,5.37-5.24,1.15-10.53,2-15.82,2.9-17.1,2.81-34.3,5-51.33,8.28-.61.12-1.21.31-1.81.45-3.36.5-6.62,1.51-10,2a2.77,2.77,0,0,1-1.73-.29,2.86,2.86,0,0,1-.81-1.5c-.72-5.64-3.82-9.53-8.87-12-2.12-1-4.07-2.36-6.13-3.49-1-.56-2.39-1-2-2.67,8.63-.22,17.24-.63,25.42-3.86,15.72-3.73,31.17-8.4,46.47-13.6a3.32,3.32,0,0,0,2.42-3.26c1.16-10.35.3-20.71.19-31.07,0-2.5-.18-5-.28-7.49a.84.84,0,0,1,1.12,0c1.24,1.47,3,1.07,4.5,1a49.25,49.25,0,0,1,12.5,1.25A8,8,0,0,1,519.83,263Z"/><path class="cls-5" d="M618.87,280.31c1.72-11.39,3.44-22.79,3-34.37-.49-12.35,2.12-24,8.63-34.51,5.12-8.26,11.59-15,22.36-15.12a32.5,32.5,0,0,1,4.4.56c0-1.52-1.94-2.09-1.62-3.65l7.54,8.28c4.25,12.85,5.24,25.95,4.21,39.44-.92,12-2.52,23.8-7.39,34.92-1.13,2.58-1.91,5.46-4.51,7.15-3.28.69-6.4-.49-9.57-.89C636.92,281,627.82,281.71,618.87,280.31Z"/><path class="cls-6" d="M543.07,598.26,567.83,584c1,.54.48,1.89,1.52,2.64,1.9-1.45,3.44-3.11,3.66-5.69l10.49-6c4.52.58,9,1.44,12.91,3.87,6.09,3.13,12.86,4.11,19.33,6q26.44,7.74,53,15c3.42.93,4.87,2.67,4.7,6-.22,4.48,1,9-.66,13.45-1.7-2.22-1-4.81-1-7.25s-.69-3.61-3.28-4c-24-3.32-47.78-8.27-71.94-10.59-5.21-.5-10.42-1.22-15.69-1-8,.3-11.1,3.44-11.15,11.3-.08,12,.31,24-.74,35.94a4.82,4.82,0,0,0,.24,2.58c.12,8.26-.24,16.53.74,24.77.12,1,.48,2.24-.57,3.11-1.59-1.47-.68-3.53-1.33-5.53-8.09,3.12-16.12,4.6-23.36-2,.27-6.44.56-12.89.79-19.33a47,47,0,0,0-.75-10,2.93,2.93,0,0,0,.59-2.79,83.85,83.85,0,0,1-.25-14.11C545.37,612.89,544.34,605.57,543.07,598.26Z"/><path class="cls-7" d="M423.93,572.9c13.47,7.22,26.62,15,39.76,22.81a9.57,9.57,0,0,1,1.13,3.92c2.58,20.2,4.92,40.43,7.87,60.58.77,5.27-.16,6.44-5.36,7.37a80.76,80.76,0,0,1-26.83.61c-2.19-.34-4.53-.45-6.12-2.39-1-8.26-2-16.51-3-24.77q-2.12-18.32-4.15-36.65C426.08,593.89,425,583.39,423.93,572.9Z"/><path class="cls-7" d="M330.78,520.31c.42-1,1.06-.79,1.79-.36l40.31,23.5a7.61,7.61,0,0,1,2,4.71c3.18,22.35,6.61,44.66,9.77,67,.59,4.19-.24,5.12-4.56,5.2-6.73.13-13.47.06-20.21,0a15.45,15.45,0,0,0-6.56,1.16c-2.11-9.14-4.28-18.27-6.31-27.44Q338.86,557.23,330.78,520.31Z"/><path class="cls-8" d="M497.33,614.79c3,1.6,5.54,3.94,9,4.49a6.9,6.9,0,0,1,.51,3.66q-.09,127.19,0,254.39c0,4.25,0,8.49.31,12.73-.34.35-.65.95-1,1-2.84.42-8.85-4.55-8.85-7.31q0-133.92,0-267.84C497.26,615.54,497.31,615.16,497.33,614.79Z"/><path class="cls-8" d="M49.66,356.86,58.61,362a21.78,21.78,0,0,1,.47,5.57q0,125.47,0,250.94c0,4,0,8,.22,12-1.82,1.83-3.12.06-4.58-.67-5.86-2.81-5.17-8-5.17-13.25q.09-127.25,0-254.5C49.6,360.35,49.64,358.61,49.66,356.86Z"/><path class="cls-9" d="M717.92,497.11c2.68-1.2,4.89-3.37,8.2-4.21v4.69q0,129.21,0,258.42c0,3.2-.05,6.11-3,8.07l-3.83,2.18c-1.89.77-2.08-.78-2.4-1.89a15.89,15.89,0,0,1-.29-4.47q0-128.16,0-256.32C716.62,501.34,716.41,499,717.92,497.11Z"/><path class="cls-10" d="M353.34,621.55c-.16-2.58,1.67-2.27,3.29-2.27,7.86,0,15.72-.08,23.58,0,2.93,0,4-.21,3.39-3.91-2.17-12.43-3.68-25-5.52-37.46-1.69-11.51-3.47-23-5.21-34.5l25.24,14.36q4,24.15,8.11,48.3c.87,5.12,1.45,10.31,3.17,15.25.58,1.67-.17,2.51-1.63,3.13-1.69.71-3.33,1.55-5,2.33a7,7,0,0,1-3.44,2.14c-11.22,4-22.84,3.68-34.48,3.29a3.15,3.15,0,0,1-2.33-1c-.28-.22-.53-.57-.84-.63C354.24,629.07,354.24,629.08,353.34,621.55Z"/><path class="cls-9" d="M507.13,890.06a1.58,1.58,0,0,1-1.54-1.75c0-1.12,0-2.25,0-3.37q0-130.09,0-260.18c0-1.85-.34-3.77.75-5.48,2.18-.88,3.83-2.79,6.31-3.24.88,1.13.44,2.41.44,3.58q0,131.38,0,262.75a9.62,9.62,0,0,1-.7,4.75Z"/><path class="cls-11" d="M717.92,497.11q0,37.87-.06,75.73,0,94.48,0,189c0,1.5-1.14,3.63,1.39,4.45-2.8,1.46-4-1.49-6-2.2-2.82-1.87-3-4.59-3-7.72q.11-124,0-248c0-4.81.48-8.61,5.75-10.11A8.32,8.32,0,0,0,717.92,497.11Z"/><path class="cls-9" d="M59.3,630.51c-.82-.13-1.41-.5-1.42-1.42,0-1.12,0-2.25,0-3.37q0-129.54,0-259.07c0-1.54-.65-3.27.75-4.62,5.24,2,7,5.37,6.94,11.33q-.4,124.38-.14,248.77c0,2.46-.19,4.63-2.27,6.22Z"/><path class="cls-12" d="M510.78,77c-.22-9.83,1.5-19,7.9-27a26.2,26.2,0,0,1,15.66-9.77,13.75,13.75,0,0,0,3.61-1.87c4.3-2.47,8.84-4,13.87-3.31a8.24,8.24,0,0,0,6.21-1.6c3.35-2.36,6.35-1,7.32,3.23-2.09-.93-4-3.28-6.21-.56a5.73,5.73,0,0,0,6.4,1.52,11.22,11.22,0,0,1,7-.12c4.93,1.59,9.28,4.57,14.44,5.82,2.66.64,3.56,3,2.91,6.25-.76,3.88.66,7.82,2.41,11.43a14.39,14.39,0,0,1,1.87,7.49c.28,1.51.84,3.52-1.86,2.21s-4.64-.57-6.58,1.47c-1.66,1.74-3.69,1.24-5.44.06s-1.48-2.74-.75-4.33c.8-1.75,2.4-1.9,4.13-1.77-2.21-2.73-4.2-3-6.12-.34-1.45,2-2.82,2.82-5.26,2.07-2-.6-3.86.75-5.86.64-2.21-1.17-4-3-6.41-3.87-2.45-3.44-5.45-5.37-9.9-3.92a7.61,7.61,0,0,0-3.73,2.3c-2.44,2.91-3.56,3-6,.89-2.82-2.49-3.3-5.54-1.14-7.83s4.55-3,7.44-1.54c.51.25,1.07.71,1.73.26a9.79,9.79,0,0,0-12.15-1.67A10.24,10.24,0,0,0,531,64.8c.7,2.56,2.73,4.45,3.29,7a4,4,0,0,1-3.92,2c-1.68-.31-2.7-1.7-4.07-2.53-5.61-3.39-10.49-1.48-12.24,4.8C513.22,79.21,513.09,79.24,510.78,77Z"/><path class="cls-10" d="M434.36,665.8c11.26,2.87,22.58,2.45,33.93.59,2.81-.46,4-1.75,3.58-4.74-1.52-10-3-20.07-4.3-30.13-1.18-9-2.15-17.94-3.22-26.92-.35-3-1.1-5.87-.66-8.89,7,3.9,14.19,7.55,20.76,12.22-1.52.27-2.63.42-2.35,2.74,2,16.57,4.12,33.13,6.79,49.61.56,3.42.75,6.9,1.34,10.32a1.83,1.83,0,0,1-1.14,2.3c-1,.57-2.39.67-3.08,1.84-2.95,2.53-6.81,2.69-10.25,3.94-10.16,2.57-20.46,2.24-30.78,1.58a3.73,3.73,0,0,1-2.35-1c-2.22-1.42-6.33-.22-7-2.07A28.37,28.37,0,0,1,434.36,665.8Z"/><path class="cls-13" d="M393.94,724.31c3-7.85,9.25-12.72,15.76-17.36,5.87-4.18,11.75-8.35,17.68-12.44a36.34,36.34,0,0,0,9.85-9.56,19.4,19.4,0,0,1,5.21-5.14c4.07.31,8.13.67,12,2.26,2,.81,3.91,1.58,5.11,3.49.7,1.76-.18,3.11-1.12,4.48A200.33,200.33,0,0,0,439,724.5a7.42,7.42,0,0,1-2.63,3.56,72.68,72.68,0,0,1-31.79,5.38C397.48,733,394.35,730,393.94,724.31Z"/><path class="cls-13" d="M311.52,670.32c2.82-5.55,7.55-9.1,12.82-12a226.74,226.74,0,0,0,36.56-24.67,15,15,0,0,0,1.47-1.62c5.37-.73,10,1.25,14.39,4a6.42,6.42,0,0,1,2.66,3,5.62,5.62,0,0,1-1.66,6.14c-9.87,9.09-18.19,19.5-25.84,30.47-1,1.42-1.92,3-3.71,3.58-9,1.67-18,2.45-27,.82C314.71,679,311.4,675.56,311.52,670.32Z"/><path class="cls-5" d="M498.1,258.67l-.32-.05-.32,0c-1.43-1.17-.77-2.79-.73-4.17.47-14.62-1.36-29.09-2.73-43.59-.87-9.16.43-18.1,2.55-27a10.66,10.66,0,0,1,3-5.05,46.62,46.62,0,0,1,15.77-10.34c-2.39,4.61-2.83,9.72-3.71,14.7-1.13,6.4-.73,12.88-.79,19.34-.15,15.33,2.32,30.34,5.56,45.25.79,3.63,1.75,7.22,2.63,10.82a4.46,4.46,0,0,1-3.08,1c-5,.12-10.08-.06-15.13,0A4.23,4.23,0,0,1,498.1,258.67Z"/><path class="cls-14" d="M677.4,440.9c-2.87,4.45-2.88,4.46-7.77,1.67-1-.55-1.85-1.22-2.77-1.83-.63-1.8.13-3.44.65-5.09A87.33,87.33,0,0,0,671.65,408c-.27-16.1.57-32.17,1-48.25.46-18.1,3.07-36,6.75-53.76,2.51-12.09,4.47-24.3,7.65-36.24a12.51,12.51,0,0,1,8.23-4.39c-.05,6.85-2.25,13.34-3.5,20-3.51,18.72-7.89,37.32-9.23,56.36-1.31,18.56-1.24,37.17-1.44,55.78-.12,11.71-.07,23.45-1.66,35.1A50.62,50.62,0,0,1,677.4,440.9Z"/><path class="cls-4" d="M596.23,148.95c-1.8,1.37-1.52,3.57-2.09,5.41-2.68,8.52-4.74,17.33-11.54,23.86-6.11,5.86-13.36,8.52-21.78,7.52-3.94-.47-7-2.42-8.25-6.52-1.92-6.55-3.78-13.11-5.66-19.67,1.57-1.46,3.55-1,5.36-1,11.56.38,20.05-4.67,26.32-14.21,3.38-5.15,5.53-10.83,8.07-16.35,1.49,4.41,2.39,9,4.51,13.23A32.49,32.49,0,0,0,596.23,148.95Z"/><path class="cls-15" d="M569.22,646.23c-1.06-1.18-.59-2.62-.6-3.94,0-11.86.23-23.73-.13-35.58-.24-7.73,4.69-11.11,11.33-11.38,8.1-.33,16.16.75,24.17,1.74q21.43,2.64,42.71,6.44c7.09,1.26,14.23,2.19,21.34,3.34a5.77,5.77,0,0,0,2.93.2c1.73-.61,1.89.42,1.88,1.7,0,3.5,0,7,0,10.49-1.81,1.27-4.31-.08-6,1.57-5,.39-10.1,1.32-15-.73-3.49-.26-5.8-2.08-7.64-5.06-2.31-3.75-6-5.18-10.39-5.54-10.91-.9-21.78-2.29-32.69-3.28-6-.54-11.95-.64-17.92-1-4.07-.22-6.45,1.72-7.75,5.51-3,8.63-4.2,17.59-5.28,26.59C569.75,640.27,569.51,643.25,569.22,646.23Z"/><path class="cls-4" d="M544.54,151.32a3.29,3.29,0,0,0-2.74-.89c-5.17.47-8.55-2.25-11.68-6-7.23-8.71-10.16-18.87-10.87-29.9,2-.18,3.66,1.21,5.69,1.39,3.93.36,6.31-2.48,9.4-3.84,1.74.81,1.3,2.46,1.48,3.86s-.34,3.46,2.32,3.25c3.21-.26,4.92-1.8,4.82-4.29-.07-1.79-1.65-3.88.91-5.23,1.82.05,3.19,1.29,4.84,1.81,6.48,2,12.41-1.43,13.49-8.05a48.59,48.59,0,0,1,1.13-6.22c.58-1.94,1.65-3.45,4-1.88.34,2-.67,3.65-1,5.46-2.62,12.62-3,25.23.35,37.8a8.74,8.74,0,0,1,.47,4c-.87,2.54-3.24,3.29-5.32,4.3C556.36,149.57,550.43,150.39,544.54,151.32Z"/><path class="cls-16" d="M348.84,678.53a239.84,239.84,0,0,1,24.88-31.11c2.21-2.39,5.9-3.62,5.12-7.89,4.15,2.28,12.13,1.08,16.48-2.59a20.09,20.09,0,0,0,5.27-6.2c.55-1.09,1-2.31,2.38-2.7,5.56,6.31,7.57,14.05,8.84,22.08.27,1.71.44,3.43.65,5.14-16.79,5.53-33.76,10.61-48.87,20.23-3.18,2-6.87,2.92-10.54,3.69C351.61,679.5,350.09,679.78,348.84,678.53Z"/><path class="cls-4" d="M530.46,73.41,534,71.66c5.29-1.08,10-3.62,14.63-6.18,3-1.65,5.32-1.19,7.28,1.23s1.8,4.83-.36,7.41c-.36.42-1.06.59-1,1.35C558.42,74,560,71.82,559.95,68c0-1.2-.66-2.48.45-3.53a5.85,5.85,0,0,1,5.71,3.75,22.58,22.58,0,0,1,5,10.11c-.07,4.5,1,9.16-2,13.23a7,7,0,0,1-8.37.23c-2.94-1.39-6-1.08-9.1-.72a4.65,4.65,0,0,0-4.2,3.63c-5.36,5.17-13.44,6-18.26,2C527,94.22,524.43,95.57,522,96c-1.73.3-3.34,1.84-5.22.49-.41,0-.61-.11-.54-.54.17-2.25-.66-4.36-1-6.55-.5-3.73.08-4.31,3.66-3.56,1.06.22,2.09.71,3.36.33-5-3.51-5.49-5-2.88-8,2.09-1,4.17-2.12,6.3-3.08A27.75,27.75,0,0,0,530.46,73.41Z"/><path class="cls-16" d="M436.59,727.28c6.1-13.75,13.12-27,22.07-39.11.39-.53.31-1.42.44-2.14,1.71-1.4,3.93-1.38,5.9-2,4.17-1.4,7.73-3.85,11.34-6.23a55.42,55.42,0,0,1,9.67-3,76.75,76.75,0,0,1,6.74,17.31c-3.75,5-8.92,8.28-14.12,11.35a266.75,266.75,0,0,0-25.9,17.6,36.54,36.54,0,0,1-11.86,6.13C439.51,727.54,438.05,728.32,436.59,727.28Z"/><path class="cls-17" d="M655.61,282.47c7-12.95,9.71-26.89,10.69-41.51a126.32,126.32,0,0,0-1.73-30.72,48.84,48.84,0,0,0-1.72-6.09c-.31-1-.82-1.88.31-2.65,8.37,7.28,14.91,15.6,16.08,27.17.74,7.33-.8,14.33-2.7,21.3a10,10,0,0,0-.6,4c1.43,2.75,0,5.48-.07,8.21-1.46,7.07-2.63,14.19-3.57,21.36-.32,2.45-.48,5.33-4.36,4.33-3-1.05-6.12-2-9.17-3.09C657.53,284.31,656.09,284,655.61,282.47Z"/><path class="cls-18" d="M566.36,143c-.18-4.25-2.23-8.08-2.54-12.34-.87-12.06-1.4-24,3.27-35.59,2.75-3,6.3-2.7,9.85-2.46,1.55,2.19.85,5.06,2.21,7.31,6.56,3.15,4.92,9.24,5.27,14.62l-.2,1.5c.13,3.63-1.52,6.71-3,9.83a55.32,55.32,0,0,1-10.37,15C569.64,142.15,568.46,143.66,566.36,143Z"/><path class="cls-19" d="M566.36,143c6.09-3.3,9.19-9.19,12.58-14.77a65.65,65.65,0,0,0,5.28-12.19L586.66,128c-.29,6-3.6,10.79-6.49,15.67-6.44,10.87-15.82,16.63-28.76,15.86-1.49-.09-3,0-4.5,0-1.12-1.09-.14-3.41-2.29-3.91,1.4-1.47-.42-2.88-.08-4.33.29-1.78,1.7-1.37,2.89-1.55C554.18,148.79,560.78,147.35,566.36,143Z"/><path class="cls-15" d="M596.41,578.81c-4.42-.9-8.86-1.73-12.91-3.87l12.91-7.36c9.21-3.9,19.11-4.29,28.81-5.62,10.35-1.42,20.78-2,31.2-2.69a4.31,4.31,0,0,1,3.5.83c0,2.84,1.55,6.28-2.86,7.43-4.53,2-9.44,1.63-14.2,2.26-1.17-2.93-4.79-4.27-9.32-3.49a145,145,0,0,0-22.61,5.93C605.9,574,600.88,575.81,596.41,578.81Z"/><path class="cls-20" d="M570.17,77.63l-4.07-9.46c2.55-.82,5-2.4,7.82-.88,1.54.83,1.73-.36,2.3-1.41,2.17-4,6.46-4.13,8.94-.38.43.65.9,1.31.35,2s-1.39.47-2,0c-1.51-1.32-2.57-.56-3.29.78-.58,1.09-1,2.61.41,3.29s3,2,4.38.15c2.19-2.89,4.41-4.11,7.86-1.67,1.82,1.29.7-1.12,1.3-1.53.05,2.86,2.48,5.54.64,8.55-.58-.28-.87-.87-1.32-1.28-1.79-1.66-2.95-1.25-3.58,1.12-.73,2.76,1.13,4.7,2.06,6.94l-1.66,6c-2.65,1.18-5.24,2.54-8.15,3C580.85,90,578,91.45,576,90.71,573.75,86.48,571.28,82.36,570.17,77.63Z"/><path class="cls-21" d="M436.59,727.28c8.52-1.24,14.92-6.49,21.49-11.39A185.56,185.56,0,0,1,478,702.8c5.33-3,9.7-7.34,14.74-10.75,1.17,2.75.18,4.83-2,6.54-1.47,1.15-2.88,2.4-4.45,3.39-11.12,7-21.91,14.59-33.13,21.38-13.92,8.43-29.33,13.19-45.93,12.93a25,25,0,0,1-9-1.94c-5-2-6.18-4.86-4.26-10.05,2,6.67,7,8.18,13.21,8.27C417.32,732.71,427,730.22,436.59,727.28Z"/><path class="cls-21" d="M348.84,678.53c8.18.24,14.74-4.06,21.44-7.8a100.38,100.38,0,0,1,16.52-7.78c7.18-2.44,14.3-5.07,21.45-7.59,1.38-.49,2.79-1.27,4.22-.08.61,2.33-.91,3.13-2.69,3.7-4.71,1.52-9.37,3.28-14.17,4.47a65.31,65.31,0,0,0-21.85,10.05c-9.1,6.36-19.59,8.15-30.21,9.51-8.45,1.08-16.94,1.4-25.27-.81-6.71-1.78-9.09-6.17-6.77-11.87,2,6.17,5.48,8.13,11.91,9.1C332,680.73,340.39,679,348.84,678.53Z"/><path class="cls-22" d="M576,90.49c1-.22,1.9-.49,2.87-.66,2.35-.42,3.56.45,3.22,3l-.49.45a5.23,5.23,0,0,1-5.08-.34c-3.09,1-6.45.82-9.45,2.19-2,0-3,.88-3.07,2.88-.07,1.23-.39,2.45-.55,3.68C562,112.77,553,116.58,543.88,110c-2.8-1.38-2.72-4.81-4.83-7-2.43,2.88-1.44,7.3-4.85,9.36-4.71,5.33-9.59,6-15,2.17-2.41-3.75-2.69-8.39-5.21-12.17-1.9-2.85,2.06-3.2,2.84-5,4.44-.25,8.68-2.23,13.23-1.57-.21.87.06,1.19,1,1.5a16.05,16.05,0,0,0,15.87-3c.71-1.68,2.35-1.68,3.77-2,3.4-.69,6.87-.95,10.3-1.52,2.39,2.17,5,1.1,7.56.48C571,90.13,573.35,88.82,576,90.49Z"/><path class="cls-23" d="M651.78,620.06c5,.33,10.08-.84,15,.73,4.26,5.48,3.83,11.76-1.07,15.47a10.62,10.62,0,0,1-15.19-2.17C647.6,630.2,648,625.18,651.78,620.06Z"/><path class="cls-6" d="M659.91,560.1c-20.54,1.51-41.11,2.75-61.28,7.29a16.17,16.17,0,0,1-2.23.19,160.31,160.31,0,0,1,14.23-8.35c7.22-.2,14.29-1.71,21.44-2.43s14.32-1.8,21.5-2.38C657.29,554.12,658.9,557,659.91,560.1Z"/><path class="cls-19" d="M582.11,92.81a11.22,11.22,0,0,1,8.23-3c6.94,2.32,9,5.93,6.59,12.7-2.11,6-5.92,10.57-12.51,12.08-1.6-1.84-1.23-4.34-1.29-6.31-.12-4.09-1.33-6.61-5.49-7.33,2.29-1,3.83-2.36,3.48-5.15a3.48,3.48,0,0,1,1-3Z"/><path class="cls-21" d="M403,628.05c-3.73,9.93-11.71,13.38-21.49,14.32-2.58.25-1.36-2.29-2.64-2.84-3.35-4.17-8-5.89-13-6.75-1.17-.2-2.49.4-3.46-.73l.16-.84c9.87,0,19.8,1,29.55-1.45,3.59-.9,7.13-2,10.7-2.94Z"/><path class="cls-23" d="M563.32,677.79c0,5.74,0,11.48.09,17.22,0,1.79-.46,2.84-2.36,3-1.11.12-2.19.51-3.29.62-6.31.62-7.89-.82-7.9-7,0-4.87,0-9.73-.06-14.6C554.3,677.26,558.84,676.91,563.32,677.79Z"/><path class="cls-23" d="M642.85,569.79c3.17-2.92,7.36-.83,10.88-2.19,1-.37,2.2-.06,3.31-.07,2.64,3.35,3.78,7,1.6,11a8.61,8.61,0,0,1-8.58,4.79C643.3,583,639.68,576.3,642.85,569.79Z"/><path class="cls-8" d="M266.31,506.87c-1.33-3.63-.53-7.4-.64-11.1-.14-4.58,0-9.17,0-14.39l9,5.15a148,148,0,0,1,0,24c-2.14,1.67-3.13-.86-4.64-1.38A18.06,18.06,0,0,1,266.31,506.87Z"/><path class="cls-20" d="M530.46,73.41c-.87,2-2.59,2.33-4.51,2.25-2.59-.18-4.92.14-6,3-2.18,2.49-1.5,4.7,1.89,5.93,1.09.39,2.87.21,2.33,2-.46,1.58-2,1-3.21.86-1.7-.15-3.09-1.57-5-1.32-.46,3.29,2.12,6.5.28,9.8-3-6-5.88-12-5.42-18.94.78-.09,2,2.56,2.32-.42.34-3.19,1.15-6.08,4.71-7.23,3.9-1.26,7.29-.32,10.39,2.15C529,72.12,529.71,72.78,530.46,73.41Z"/><path class="cls-15" d="M563.32,677.79c-4.57.77-9.13,1.34-13.54-.74-6.45-2.92-5.23-1.51-5.09-10.48,11,5,13,4.78,24.69.44,0,2.46,0,4.78,0,7.09C567.89,676.2,565.2,676.33,563.32,677.79Z"/><path class="cls-24" d="M543.07,598.26c2.31,3.44,2.78,7.46,2.89,11.36.26,9,.07,17.95.1,26.92,0,1.25,0,2.07-1.33.73a140.61,140.61,0,0,0-6-27,43.84,43.84,0,0,0-3.89-7.5Z"/><path class="cls-25" d="M274.6,510.53c-1.07-.83-.75-2-.76-3.09q0-8.91,0-17.82c0-1.07-.31-2.27.77-3.09,5.58,1.87,7.83,5.63,6.81,11.5-.56,3.17.93,6.67-1.52,9.56Z"/><path class="cls-26" d="M675.18,262.2c-.53-2.83.57-5.51.78-8.27,6.41,3.85,13.21,7,19.3,11.42a26,26,0,0,1-7.55,3.78C682.65,268.42,678.82,265.5,675.18,262.2Z"/><path class="cls-27" d="M476.35,677.77c-4.43,5.51-10.52,7.55-17.24,8.27-3.93-3.72-9.06-4.27-14-5.21-1-.18-2,0-2.63-1a.5.5,0,0,1,.18-.56C453.9,679.57,465.19,680.1,476.35,677.77Z"/><path class="cls-28" d="M592,83.83a5.72,5.72,0,0,1-3.15-5.8c.08-2,.25-4.26,2.7-4.62s2.84,1.82,3.29,3.64Z"/><path class="cls-29" d="M530.11,95.78c-4.38.81-8.57,3.12-13.23,1.57l-.14-.87a53.76,53.76,0,0,1,6.34-1.79C525.47,94.31,528.11,93.26,530.11,95.78Z"/><path class="cls-14" d="M433,468.63c-2.48,3-5.24,2.7-8.31.92q-66.93-38.71-133.89-77.38a13.34,13.34,0,0,1-7.16-12.28q0-61.28,0-122.56c0-2.17,0-4.29,2.24-5.56,2.12-1.07,4-.55,6,.6,38.64,22.5,77.44,44.73,116.13,67.14q8.43,4.88,16.87,9.75a17.2,17.2,0,0,1,8.57,12.54c-.2,40.43,0,80.84-.06,121.26A35.79,35.79,0,0,1,433,468.63Z"/><path class="cls-30" d="M675.18,262.2l12.53,6.94c-.83,8.18-3.11,16.08-4.65,24.12-3.91,20.39-8.06,40.7-8.91,61.56-.75,18.43-1.06,36.86-1.38,55.3a84.36,84.36,0,0,1-5.91,30.61c-13.22-7.13-26.19-14.7-39-22.51a3.41,3.41,0,0,1-.37-3.22c4.68-15.12,3.24-30.37,1-45.64-.9-6.06-2.33-12-3.3-18a2.8,2.8,0,0,1,.15-1.22c1-1.47,2.71-1.66,4.26-2.07,4-1.05,8-1.85,12-2.81a8.11,8.11,0,0,0,6.33-5.65c5.64-16.27,11.89-32.32,17.44-48.62.64-1.38.8-3,2.31-3.89,2.63.79,3.5-.67,3.63-2.93.38-6.76,2-13.32,3-20C674.45,263.4,674.49,262.68,675.18,262.2Z"/><path class="cls-4" d="M666.2,290.8c-2.15,8.58-5.77,16.65-8.62,25-2.77,8.11-6,16.07-8.71,24.2a8.58,8.58,0,0,1-7,6.27c-5.46,1.16-10.86,2.59-16.29,3.9a5.61,5.61,0,0,1-3.24,1.7c-23.92,5.57-47.75,11.56-71.77,16.72-2.65.57-5.35,1.4-8.09.33l-3,.65c-1.62-1.49-1.18-3.45-1-5.22.65-5.49-.69-10.19-4.92-13.94-1.21-1.07-2.26-2.33-2-4.17,3.32-3,7.78-3.07,11.69-4.58,2.49-1,5.09-2.18,8-1.46,7.48-2.33,15-4.64,22.44-7,12.71-4,25.38-8.21,38.13-12.11,2.59-.79,3.69-2.19,3.92-4.66q1.6-17.29,3.21-34.57c2.43-1.92,5.08-.48,7.55-.3,10.15.76,20.28,1.87,30.11,4.7C660,287.21,663.68,287.89,666.2,290.8Z"/><path class="cls-7" d="M542.45,368.9c22-3.76,43.49-9.85,65.26-14.7,6-1.33,11.9-2.7,17.84-4.05q0,.33,0,.66c1.15,6.76,0,13.39-1.18,20A108.22,108.22,0,0,1,613.73,403c-1,1.84-1.69,3.95-3.9,4.82-13.37-7.64-26.75-15.24-40.09-22.93C560.61,379.63,551.55,374.24,542.45,368.9Z"/><path class="cls-8" d="M521.25,375.52c7.39,4.29,14.76,8.62,22.18,12.86a6.91,6.91,0,0,1,3.89,6.59c0,3.06.73,6.13-.35,9.15-1.65-1.29-.64-3.31-1.37-5.05-15.19,9.18-30.37,18.24-45.54,27.35q-23,13.79-45.95,27.58a23.07,23.07,0,0,1-9.85,3.33c-1.68.16-3.7,0-3.8-2.05-.28-5.81-1.27-11.69.74-17.41,1.72-2.56,4.79-3.34,7.06-5.22,1.85-1.53,1.37-2.23-.29-3.14a39.59,39.59,0,0,1-7.2-4.43c-.84-1.84-.48-3.66.09-5.48a5.62,5.62,0,0,1,3.89-2.16c2,.2,3.75-1.4,5.82-1,1.17,2.33-1.1,2.44-2.17,3.24-1.4,1-3.46,1.4-3.59,3.66,3.25,3.8,7.12,6.05,12.32,5.1,1,.63.63,1.77,1,2.63,2.89,3.65,8.14,5.95,11.07,4.83a5.48,5.48,0,0,1,1.73-1,7.14,7.14,0,0,0,3.82-2c1.11-1,3.6-.56,3.17-3.11a2.38,2.38,0,0,1-.12-1.93,2.09,2.09,0,0,1,.95-.36,5.68,5.68,0,0,0,5.69-1.41,16.59,16.59,0,0,0,3.83-2.28c1.06-.81,3.22-.38,2.93-2.66-3.78-3.08-7.4-6.53-12.95-4.79-1.46-.84.41-2.39-.71-3.3a11,11,0,0,0-1.16-1c-4.55-3.26-9.16-5.85-14.48-1.43a3.19,3.19,0,0,1-1.77.54,2.09,2.09,0,0,1-1-.31c-.51-1.05.21-1.61.88-2.19a19.85,19.85,0,0,0,3.17-2.05,1.16,1.16,0,0,0,.22-1.5c-1.93-2.06-4.48-3.13-6.85-4.48a4.41,4.41,0,0,0-4.94.1c-2.56,1.67-5.77,2.41-7.49,5.25,0,1,.73,1.38,1.32,1.93s1.6,1.22.56,2.28c-2.25.29-3.84-.85-5.25-2.4a7.94,7.94,0,0,1,.09-5.48,10.72,10.72,0,0,1,5.88-3.65c.88-.47,2.74.58,2.49-1.62-2.17-2.92-6-3.48-8.46-6a2.11,2.11,0,0,1,.14-2c1.22-.79,2.11.15,3,.63,4,2.08,7.59,5.8,12.65,2.6a1.39,1.39,0,0,1,.66.73c.22,1.15-.77,2.14-.45,3.3,2.62,3,6.2,4.38,9.81,5.68a23.12,23.12,0,0,1,2.86,2.22,113.11,113.11,0,0,0,10.9,6.28c-.68-.34-1.5-.48-.95-1.59a7.73,7.73,0,0,1,5.7-2.07,3.44,3.44,0,0,1,1.54.47c1,1.12,0,1.77-.66,2.4s-1.53,1.26-1.43,2.4c3.38,4.11,8.19,6,11.39,4.37a6.58,6.58,0,0,1,1.24-.79c1.27-.28,2.16-1.28,3.31-1.78,1.24-.87,3.67-.44,3.29-3.05-2.06-2.08-4.77-3.1-7.23-4.51a4.54,4.54,0,0,0-4.61.1c-1.08.56-2.14,1.34-3.48.72-.57-.63-.36-1.33-.2-2,1.26-2,.71-3.2-1.28-4.43-2.15-1.34-4.84-1.94-6.34-4.26a2.69,2.69,0,0,1,.71-2c6.81-4.58,13.33-9.63,21.13-12.59,4.78-1.81,9.55-3.69,14.23-5.76C518.1,375.52,519.56,374.45,521.25,375.52Z"/><path class="cls-31" d="M441.84,437.79c-1.57,5.65-.52,11.41-.71,17.11-.06,1.89,1.59,1.69,2.77,1.54a22.88,22.88,0,0,0,9.18-2.9q45-27.07,90.06-54.09c1.13-.68,2.12-1.6,3.82-2.9,0,2.94,0,5.25,0,7.56-.39,3-2.73,4.31-5,5.66q-41.34,24.84-82.71,49.64c-4,2.41-7.74,5.56-12.61,6.32-1.47.23-3.07.75-4.42.4-3.67-1-6.52.44-9.28,2.49-1.34-1-.84-2.52-.84-3.83q0-60.08,0-120.17c0-1.5-.12-3,.76-4.35a9.59,9.59,0,0,1,8.15-4.48l.13,1.46a4.1,4.1,0,0,1,.92,1.93c.48,9.93.14,19.87.2,29.8a37.21,37.21,0,0,1-.34,4,30.41,30.41,0,0,0-.14,11.55,9.07,9.07,0,0,1,.22,1.79,5.7,5.7,0,0,1-.06,1.19,2.75,2.75,0,0,1-.8,1.55l-.07,2.18a12.62,12.62,0,0,1,.08,11.22v5.39a14.44,14.44,0,0,1,0,11.91l0,5.34C443.11,429.24,442.16,433.54,441.84,437.79Z"/><path class="cls-4" d="M521.25,375.52c-14,4.93-27.55,10.73-39.59,19.59-2.35-.75-3.2-3-4.75-4.62.39-2.25,2.32-3.14,3.91-4.24,3.16-2.18,6.45-4.19,8.73-6.72-5.07,3.39-10.86,6.52-16.38,10.08a2.88,2.88,0,0,1-2.15.45c-4.7-3.08-6.22-8.3-8.66-12.9a3.39,3.39,0,0,1,.8-2c3-3.15,6.1-6.17,9.27-9.33-2.89,0-5.4,2.19-8.33,1.23-2-1.37-2.8-3.43-3.25-5.69.36-2.21,2-3.26,3.78-4.22,2.48-1.36,5.05-2.53,7.56-3.83l2-1a45.18,45.18,0,0,0,5.65-2.58c4.72-2.87,9.59-4.4,15.3-3.21,3.49.73,7.22.08,10.84.16,5.19,0,10.38-.35,15.57.15,3.33,1.05,5,3.33,5.4,6.81a26.17,26.17,0,0,0,3.67,10.44c1.32,2.14,2.28,4.49.45,6.92C527.35,371.57,524.29,373.53,521.25,375.52Z"/><path class="cls-32" d="M441,335.81l-8.15,4.48c-2.52-3.45-3.71-7.9-8-10-2.78-1.38-5.38-3.14-8.08-4.69q-40.5-23.31-81-46.62-22.34-12.88-44.6-25.91a8.77,8.77,0,0,0-5.33-1.28c.72-.48,1.43-1,2.15-1.44,9.37-6,6.32-6.23,16.35-.49C326,262.2,347.44,274.79,369,287.23q26,15,52.15,29.92a13.25,13.25,0,0,0,2.09.78c2.71,2.58,6.14,4,9.36,5.75C437.5,326.33,440.58,330.12,441,335.81Z"/><path class="cls-10" d="M609.83,407.83c7.55-12.22,11.7-25.67,14.05-39.7,1-5.71,1.16-11.55,1.71-17.33,2.52,6.77,3.28,13.94,4.38,21a138.28,138.28,0,0,1,1.68,23.77,88.83,88.83,0,0,1-3.81,22.67A201.64,201.64,0,0,1,609.83,407.83Z"/><path class="cls-33" d="M531.06,371c.73-5.72-4.27-9.6-4.81-14.91-.34-3.35-.74-6.67-4-8.68a5.93,5.93,0,0,1,9.29-1.2c2.51,4.22,7.12,6.86,8,12.44.61,3.77-1.24,7.27-.11,10.88A8.29,8.29,0,0,1,531.06,371Z"/><path class="cls-34" d="M505.66,347.72c-5-.09-9.94.26-14.86-.53-4.49-.72-7.64,2.53-11.49,3.68-1.87.25-3.36-.71-4.86-1.56-6.48-3.68-12.83-7.58-19.34-11.2-1.21-.67-2.87-1.14-2.79-3.07,9.48-2.77,19.32-3.55,29-5.21,13.45-2.31,27-4,40.39-6.73,3.82-.77,6.21-2.55,6.84-6.65.56-3.65,1.61-7.22,2.45-10.82,1.58,3.43,1.21,7.17,1.64,10.77.56,4.64.89,9.31,1.32,14A2.82,2.82,0,0,1,532.5,332c-7.7,5-15.58,9.65-23.41,14.41C508,347,506.77,347.18,505.66,347.72Z"/><path class="cls-7" d="M505.66,347.72c9.2-6.17,18.77-11.73,28.29-17.37,3.95,4.25,9.16,6.3,14.4,8.31,1,.4,2.18.56,2.91,1.52l-19.7,6.05a9.07,9.07,0,0,0-9.3,1.2C516.75,348.41,511.2,347.81,505.66,347.72Z"/><path class="cls-35" d="M666.2,290.8a84.5,84.5,0,0,0-23.25-6.33c-8-1-16-1.77-24-2.65l-.1-1.51c2-1.19,4.14-.87,6.18-.67,10.18,1,20.5.55,30.56,2.83,3.88,1.89,8.29,2.41,12.06,4.59Z"/><path class="cls-36" d="M498.1,258.67l20.94,0,.79,4.41a58.59,58.59,0,0,0-19.44-2.26C498.85,260.88,498,260.29,498.1,258.67Z"/><path class="cls-37" d="M573,581c1,3.05-.56,5.32-4.82,7-.72-1.26-.2-2.64-.36-3.94Z"/><path class="cls-11" d="M452.31,335c8.73,5.73,17.93,10.68,27,15.84-1.45,1.35-3.33,1.68-5.13,2.21-2,.39-3.62-.67-5.18-1.63-6.79-4.16-13.87-7.83-20.64-12-1.86-1.16-4.23-.6-5.82-2.2A43.13,43.13,0,0,1,452.31,335Z"/><path class="cls-38" d="M442.54,337.22c4.69-.69,7.9,2.54,11.53,4.5,6.77,3.66,13.41,7.56,20.11,11.35l-1.62.87c-1.62.56-2.86-.31-4.17-1q-7.16-4-14.16-8.26a58.24,58.24,0,0,0-13.14-5.87l0-1.51Z"/><path class="cls-20" d="M560.4,64.42c1,6.89-.19,10-4.64,12-1.13.51-2.6,1.35-3.36.05-1-1.75,1-1.8,1.93-2.4,2.46-1.62,2.79-3.77,1.34-6.1s-3.42-3.52-6.26-1.84c-2.55,1.51-5.23,2.82-7.84,4.23A10.56,10.56,0,0,1,534,71.66c-4.74-4.82-5.78-10.5-2.78-15.16a12.14,12.14,0,0,1,15.08-4.77,6.54,6.54,0,0,1,2,1.05c1,.88,2.79,1.73,2,3.19-1,1.79-2.4.08-3.51-.39-3.24-1.4-6.46-.75-7.69,2-1.37,3.07.83,4.87,2.94,6.49,1.06.81,1.95,1,3-.54C549.41,57.08,556.78,57.56,560.4,64.42Z"/><path class="cls-39" d="M534.21,112.35A24.35,24.35,0,0,0,537,104c.11-1.22.54-2.29,1.82-2.44s1.8,1,2.11,2.12a25.45,25.45,0,0,0,2.95,6.35c-1.58,1.91-.05,3.83.32,5.53.5,2.25-.33,2.93-2.07,3.45-.35.11-.71.21-1.06.32-6.07,2.08-6.07,2.08-6.22-4.2C534.82,114.16,535.08,113.12,534.21,112.35Z"/><path class="cls-40" d="M532.59,133.3c-2.75-.41-2-1.58-.56-2.79,3.53-3,7.92-3.59,12.22-3.57a24.84,24.84,0,0,1,9.43,1.76c1.58.66,1.54,1.13-.08,1.58C547,133.81,540.08,135.7,532.59,133.3Z"/><path class="cls-41" d="M532.59,133.3c7.23.6,14.13-1.16,21-3-3.7,5.49-8.93,7.46-15.37,6.76A7.39,7.39,0,0,1,532.59,133.3Z"/><path class="cls-42" d="M576,90.49l-7.42.75c2.12-4.35,1.3-9,1.57-13.61C572.36,81.81,575.37,85.61,576,90.49Z"/><path class="cls-43" d="M561,90.75c-3.28,2.78-7.59,1.39-11.23,2.74a28.48,28.48,0,0,1-2.83.75c-.86-2.57.92-3.37,2.78-3.85A18.14,18.14,0,0,1,561,90.75Z"/><path class="cls-44" d="M519.92,78.63c-1.56-1.7.31-2.39,1.13-3a3.54,3.54,0,0,1,4.9.07A23.47,23.47,0,0,1,519.92,78.63Z"/><path class="cls-45" d="M582.12,92.8a34.39,34.39,0,0,0,0,4c.38,3.47-.79,5.13-4.47,4.12l-1.1-8Z"/><path class="cls-46" d="M561.35,100.73c-.13,7-2.81,9.92-9.16,10-4.7.09-7.71-2.5-8.36-7.22-.6-4.38,1-6.43,6.09-7.69a30.12,30.12,0,0,1,5.5-.86C560.34,94.74,561.44,95.87,561.35,100.73Z"/><path class="cls-47" d="M527.47,99.37c5.12,0,6.63,1.24,6.65,5.35,0,6-3.38,9.88-8.77,9.91-4.34,0-7.07-3.51-7.07-9.14C518.28,101.19,521.06,99.34,527.47,99.37Z"/><path class="cls-48" d="M515.83,101.62c-.36-.24-.83-.4-.85-.6-.07-.73.59-.7,1-.71a2.78,2.78,0,0,1,.94.34Z"/><path class="cls-32" d="M335.22,352.67c-.15-2.41.12-4.7,2.44-5.88s4.58-.64,6.71.72c5.42,3.47,8,8.71,8.87,14.84a6.21,6.21,0,0,1-2.53,6.25c-2.33,1.62-4.58.78-6.62-.5C338.4,364.54,335.61,359.26,335.22,352.67Z"/><path class="cls-18" d="M462.82,376.93c2.67,4.35,4.7,9.11,8.29,12.86a.87.87,0,0,1,0,1.06,31.49,31.49,0,0,1-7.87,4.94c-3,1.48-4.39.9-6.38-2.21l-.09-.77c-.81-.72-2-.48-2.83-1-3.46-3.67-3.47-4.63-.08-8.12.59-.61,1.18-1.23,1.78-1.83,1.33-1.28,2.59-2.64,4-3.86C460.5,377.16,461.38,376.1,462.82,376.93Z"/><path class="cls-49" d="M443.36,440c1.27-2.94,4.31-3.59,6.65-5.14,5.67-3.76,9.69.54,14.07,2.91,1.43.77,1.31,1.93.26,3-.47,1.4-2.15.82-2.9,1.76a13.67,13.67,0,0,1-4,2.37c-2.13,1.69-4.21,1.59-6.43.08C448.48,443.3,445.44,442.38,443.36,440Z"/><path class="cls-50" d="M470.84,435.47l-1.26.91a2.4,2.4,0,0,1-2.43.5c-3.47-1.47-6.94-3-9.55-5.84a1.66,1.66,0,0,1,.06-2.18l.21-.48a14.55,14.55,0,0,1,4.11-3.14c.78-.41,1.59-.76,2.4-1.11,2.79-1.85,5.51-1.47,8.2.23,1.73,1.21,3.87,1.88,5.09,3.77l1,1.43c-.08,2.83-3,2.48-4.34,3.91A13.5,13.5,0,0,1,470.84,435.47Z"/><path class="cls-49" d="M477.86,416.13c4.45-2,11.86.68,14.21,5.14-.5,2.38-3.12,1.94-4.39,3.29-1,1.35-2.9,1.25-4,2.4a4,4,0,0,1-4.45.42c-2.84-1.16-5.3-3-8.11-4.24-1-1.09-1.4-2.24-.3-3.52C473.08,418.34,475,416.21,477.86,416.13Z"/><path class="cls-51" d="M444.19,423.47c-1.25-1.31-.44-2,.71-2.76,2-1.37,4.44-2,6.09-3.85,1.36-2.07,3.36-1.82,5.38-1.49,2,.94,3.83,2.19,5.81,3.16,1.26,1.26,4.07,1.62,2.65,4.47a9.25,9.25,0,0,1-3.35,2.5c-1.45.6-2.5,1.87-4,2.41C451.64,430.64,448.13,426.42,444.19,423.47Z"/><path class="cls-49" d="M488.37,407.1a19.07,19.07,0,0,0,3-1.36,4.91,4.91,0,0,1,6.14.11c2.38,1.67,5.38,2.4,7.23,4.86-.47,2.74-3.1,2.76-4.86,3.87a19.84,19.84,0,0,0-2.48,1.46l-.8.77a4.86,4.86,0,0,1-5.9-.1c-2.25-1.49-5.07-2.13-6.7-4.53-.62-.8-1.14-1.53.15-2.27a34,34,0,0,0,2.85-2A1.26,1.26,0,0,1,488.37,407.1Z"/><path class="cls-49" d="M443.45,406.22c-.1-.23-.35-.51-.29-.67.63-1.7,9.81-7.37,11.35-6.61,3.54,1.74,7.79,2.57,9.83,6.6-.18.9-1,1.23-1.55,1.84-1,.56-2.06,1.06-3.08,1.61-1.79,1-3.36,2.45-5.37,3.12C449.73,412,446.7,408.88,443.45,406.22Z"/><path class="cls-52" d="M459.85,410.79c.55-.26,1.12-.51,1.66-.8,7.06-3.78,11-3.1,16.89,2.94-.33,2.33-2.44,2.88-4,3.87s-3.19,1.76-4.72,2.78c-2.13,1.1-4,.32-5.84-.81-2.18-1.33-4.59-2.27-6.58-3.94C455,411.48,458.06,411.54,459.85,410.79Z"/><path class="cls-53" d="M480.87,396.55a66,66,0,0,0,6.87,3.71c3,1.21,3.17,2.82,1.34,5.12-1.15,1.15-2.7,1.61-4.08,2.36-2.18-.48-3.62,1.59-5.65,1.63-3.31-.26-5.73-2.09-7.88-4.42A16.87,16.87,0,0,1,480.87,396.55Z"/><path class="cls-54" d="M480.87,396.55l-9.25,8.22c-.89.82-1.82.45-2.74.09a5.1,5.1,0,0,1-2.31-2.31,1.36,1.36,0,0,1-.27-1.46c2.91-2.62,5-6,8-8.58.9-.76,1.6-1.81,2.9-2,2.54.5,2.91,3.12,4.48,4.57Z"/><path class="cls-55" d="M474.77,392.81c-2.56,2.94-4.63,6.35-8.14,8.36-.53.62-1.18,1-2,.55-2.85-1.7-6.1-2.77-8.4-5.34-1.42-1.28-.25-2,.59-2.8,2.43,2.7,4.94,2.59,7.8.53a22.27,22.27,0,0,1,6.4-3.63C472.67,390.68,474.14,391.08,474.77,392.81Z"/><path class="cls-56" d="M441.84,437.79c-1.78-4.15-.48-8.46-.68-12.69,3.32.87,5.94,3.1,8.89,4.67,1.91,1,1.42,2-.15,2.91C447.19,434.35,444.53,436.09,441.84,437.79Z"/><path class="cls-56" d="M441.11,419.77l0-11.91,5.09,2.3h.53c1.46.61,3,1.05,3.88,2.57.5,4.28-3.4,4.1-5.66,5.59Z"/><path class="cls-57" d="M441.15,402.47l-.08-11.22c3.4,1.49,7.21,2.36,9.11,6.09,0,2-2.11,1.23-2.87,2.24C444.86,399.69,443.35,401.8,441.15,402.47Z"/><path class="cls-58" d="M445,418.32c1.11-.88,2.1-2.14,3.37-2.56,1.93-.65,1.88-1.86,1.69-3.35a.7.7,0,0,1-.21-.6q.06-.32.13-.32c1.87-.2,3.86,1.89,5.63-.29,1.15-.17,2.16-1.53,3.47-.41h.78c-.42,1.4-4.37.75-2.13,3.69a2.44,2.44,0,0,1-.31,1.15,1.35,1.35,0,0,1-.59.53,8,8,0,0,0-5.82.7C448.88,416.9,447.21,418.76,445,418.32Z"/><path class="cls-59" d="M454.73,391.32c.73.43,1.65.6,2.05,1.48-4.77,3.66-8.59.72-12.49-1.78-1-.67-2.1-1.31-3.15-2q0-.81,0-1.63c2.35-.39,3.84,1.35,5.63,2.29C449.3,391,451.69,392.76,454.73,391.32Z"/><path class="cls-60" d="M444.19,423.47a50.45,50.45,0,0,1,5.16,2.87c2.61,1.86,5.2,2.64,8.12.84,1.31.28,1.31.3.17,1.67h0c-5.9,2.81-9.53-2-13.91-4.22C443.34,424.41,443.73,423.76,444.19,423.47Z"/><path class="cls-61" d="M443.36,440c2.37,1.29,4.85,2.43,7.08,3.93s4.64,2,7.17.64q.28.24.18.47t-.19.23A2.78,2.78,0,0,1,454.3,447C450.24,445.41,445.71,444.33,443.36,440Z"/><path class="cls-62" d="M457.61,431c4.08,1.58,7.2,5.31,12,5.34-.31,1.86-1.86,1.74-2.85,1.26-3.19-1.53-6.28-3.31-9.34-5.1C456.78,432.18,457,431.46,457.61,431Z"/><path class="cls-63" d="M484,412.18c1.92,1,3.94,1.94,5.74,3.16a8.25,8.25,0,0,0,6.86,1.46c-1.29,2-2.9,2.51-5,1.24-2.36-1.39-4.77-2.68-7.17-4C483.53,413.57,482.76,413.09,484,412.18Z"/><path class="cls-64" d="M469.45,419c2.63-2.53,6.44-3.31,8.94-6,2,1.42-.57,2.1-.53,3.2a30.86,30.86,0,0,1-6.62,3.83l-.42-.08A1.68,1.68,0,0,1,469.45,419Z"/><path class="cls-65" d="M455.34,411.61c-1.79,2.74-3.53,1-5.27-.06-1.54.25-2.52-1-3.81-1.43l0,0c-.23-1.32-1.45-1.56-2.36-2.11s-1.64-.9-.43-1.83c3.91,1.45,6.86,4.89,11.24,5.35Q455.05,411.07,455.34,411.61Z"/><path class="cls-66" d="M471.2,422.71c2.51,0,4.22,1.77,6.18,2.9,2.21,1.27,4.33,2.12,6.82,1l.17,0c-1.3,3-3.45,2.55-5.77,1.45-2.37-.67-4.17-2.4-6.36-3.42-.67-.5-1.9-.41-1.87-1.63C470.38,422.63,470.86,422.61,471.2,422.71Z"/><path class="cls-67" d="M468.88,404.85l2.74-.09,7.73,4.61,1.48,1C476.06,410.24,472.56,407.35,468.88,404.85Z"/><path class="cls-68" d="M456.28,396.38c2.69,1.48,5.41,2.9,8,4.48a2.4,2.4,0,0,0,2.32.3l-.06,1.37c-4.27,0-7.12-3.07-10.49-5C455.58,397.29,455.78,396.71,456.28,396.38Z"/><path class="cls-69" d="M499.83,414.59l4.89-3.89c.4,2.5-.45,3.23-4.52,3.89Z"/><path class="cls-70" d="M474.23,433.33c1-1.77,3.55-1.82,4.45-3.76,1.21,3.86-1.95,3.21-3.91,3.79l-.28.22Z"/><path class="cls-71" d="M455.34,411.61a2.54,2.54,0,0,0-.66,0c1.56-1.41,3.16-2.75,5.39-2.94q.6-.06.56.53l-1.57,1.63Z"/><path class="cls-72" d="M487.64,424.3l4.43-3c.21,2.21-.19,2.53-3.86,3.07C488,424.62,487.81,424.59,487.64,424.3Z"/><path class="cls-73" d="M472.57,424.31l6,3.72-.91.11a18.43,18.43,0,0,1-5.17-3Q472,424.71,472.57,424.31Z"/><path class="cls-74" d="M485,407.74a4.34,4.34,0,0,1,4.08-2.36l-.71,1.72-1.38.78Z"/><path class="cls-75" d="M457.6,445.27q0-.35,0-.71a11.2,11.2,0,0,1,3.77-2.26c.22-.31.43-.29.62,0A5.26,5.26,0,0,1,457.6,445.27Z"/><path class="cls-69" d="M474.23,433.33a4.28,4.28,0,0,1,.54,0c-.49,2.24-2.21,2.17-3.94,2.11A4.49,4.49,0,0,1,474.23,433.33Z"/><path class="cls-75" d="M487.64,424.3l.58,0c-.66,1.81-2.1,2.29-3.85,2.24l-.17,0C484.9,425.17,486.43,425,487.64,424.3Z"/><path class="cls-76" d="M460.63,409.16l-.56-.53c.48-1.15,1.59-1.33,2.59-1.67a.63.63,0,0,1,.92.08C463.07,408.4,461.76,408.65,460.63,409.16Z"/><path class="cls-77" d="M447.31,399.57l2.87-2.24C450.41,399.38,450.41,399.38,447.31,399.57Z"/><path class="cls-78" d="M462,442.33a5.58,5.58,0,0,1-.62,0c.74-1,1.92-1.13,3-1.5C464.3,442.45,463.53,443,462,442.33Z"/><path class="cls-63" d="M499.83,414.59a1,1,0,0,1,.38,0c-.89.59-1.19,2.33-2.83,1.45A2.39,2.39,0,0,1,499.83,414.59Z"/><path class="cls-79" d="M463.58,407l-.92-.08,1.68-1.43C465.49,406.74,464.54,406.89,463.58,407Z"/><path class="cls-14" d="M441.11,338.78c5.44-.65,9.35,2.8,13.65,5.14,6,3.26,11.88,6.68,17.81,10-3.5,2.81-8.64,3.12-11.23,7.32-3.33,5.07-6.73,10.06-12,13.35a13.64,13.64,0,0,1-8.17-5.05Q441.12,354.18,441.11,338.78Z"/><path class="cls-49" d="M454.73,391.32c-1.26,2.28-3,2.08-5,1-2.87-1.61-5.72-3.26-8.58-4.89a3.33,3.33,0,0,1,0-.6c2.52-3.91,6.58-5.5,10.73-6.73,1.69-.5,3.79-.34,4.31,2.19-.56.64-1.08,1.32-1.69,1.91C451.11,387.57,451.12,387.82,454.73,391.32Z"/><path class="cls-80" d="M456.19,382.3c-2.13-2-4.37-2-6.78-.48-2.72,1.72-5.5,3.36-8.25,5l0-1.54c.44-1.07,1.28-1.88,1.77-2.93,1.06-1.58,2.74-2.25,4.39-3,3.15-.09,5.31-2.67,8.25-3.29,2.72.39,5.28-1.48,8-.62l-.75,1.42C459.89,377.83,458.69,380.87,456.19,382.3Z"/><path class="cls-26" d="M441.13,369.57c2.88,1.26,5.21,3.55,8.26,4.5.4,1.84-.52,2.85-2.14,3.42-2.52-.21-4.29-1.88-6.23-3.22a.88.88,0,0,1,0-1Z"/><path class="cls-74" d="M441,373.25l.14.83c1.28,1.44.92,3.22,1,4.9,0,1.49,0,3,1.27,4,0,1.46-1.26,1.74-2.21,2.3A21.82,21.82,0,0,1,441,373.25Z"/><path class="cls-18" d="M447.08,377c1.31-.57,1.69-1.86,2.31-3,3.68-2.74,6.06-6.66,9.07-10a11.75,11.75,0,0,1,2.88-2.78c1.09,1.75,1.49,3.89,3.1,5.32a1.75,1.75,0,0,1-.35,2.38c-2.77,2.85-5.12,6.16-8.81,8-2.67,1-4.62,4-8,3C445.42,379.11,445.58,378.11,447.08,377Z"/><path class="cls-14" d="M455.28,377c2.66-3.81,7.1-6,9.15-10.38l9.7-2.22.52.6-11.08,10.54C460.9,376.53,458.22,377.5,455.28,377Z"/><path class="cls-81" d="M474.77,392.81l-3.7-2.32q0-.35,0-.69l20.36-12.39a15.67,15.67,0,0,1-5.42,6.42c-3,2.19-6.48,3.73-8.87,6.71A5.94,5.94,0,0,1,474.77,392.81Z"/><path class="cls-82" d="M528.84,359c-.63-1.63-2.34-3.65-.71-4.94,2-1.58,5.05-1.76,7.46-1.38,1.53.24,1.33,3.22,2.21,4.84C535.13,360,532.17,360.62,528.84,359Z"/><path class="cls-83" d="M528.84,359c3.11.25,6-.58,9-1.48.65,1.92,1.43,3.74-1.66,4.41C530,363.3,529.65,363.24,528.84,359Z"/><path d="M549.93,102.37c.45-2.47,1.09-4.89,3.87-4.86,2.55,0,3.42,2.28,3.48,4.49.06,2.38-.82,4.7-3.52,4.87C550.77,107.06,550.63,104.27,549.93,102.37Z"/><path d="M527.45,106.27c-.09,1.69,0,3.78-2.46,3.75-2.18,0-2.84-1.72-2.86-3.66s.56-3.67,2.71-3.82C527.31,102.39,527.39,104.39,527.45,106.27Z"/><path class="cls-84" d="M472.57,424.31l-.05.87a7.56,7.56,0,0,0-8.17-.29c-.47-.7,0-1.45-.08-2.16,1.35-2.51-1.81-2.11-2.23-3.47l.26-.45c2.91.32,5.68,2,8.73.92l.22.23c-1.14.9-.16,1.83,0,2.75C470.48,424.25,472.24,423.67,472.57,424.31Z"/><path class="cls-8" d="M457.64,428.86c.06-.57.73-1.2-.17-1.67a8,8,0,0,1,3.77-2.3,1.21,1.21,0,0,1,.94,1C460.59,426.73,459.61,428.53,457.64,428.86Z"/><path class="cls-73" d="M462.19,425.85l-.94-1,3-2.15c1.22.67.45,1.43.08,2.16Z"/><path class="cls-71" d="M456.81,416.16l0-.87c2.21.56,4.54.94,5.23,3.66l-.05.31C460.19,418.4,458.25,417.7,456.81,416.16Z"/><path class="cls-73" d="M462.09,418.95c-1.28-1.88-3.67-2.18-5.23-3.66l.86-.81c2.28,1.24,4.59,2.43,6.83,3.74,1.57.92,3.12,1.51,4.91.75.6.1,1.24.13,1.58.77C467.82,422.11,465,420.05,462.09,418.95Z"/><path class="cls-8" d="M446.26,410.13c1.49-.12,2.55.92,3.81,1.43l0,.85A6.67,6.67,0,0,1,446.26,410.13Z"/><path class="cls-50" d="M447.08,377c-.66,1-.85,2,.17,3-1,1.35-3.11,1.35-3.91,3-1.32.42-2.41.68-2.29-1.43.15-2.49.06-5,.07-7.49C443.5,374.28,445,376.21,447.08,377Z"/><polygon class="cls-2" points="537.46 207.51 537.46 263.82 591.73 270.94 591.73 214.63 537.46 207.51"/><text class="cls-85" transform="matrix(1, 0.13, 0, 1, 537.97, 261.63)">JS</text></svg>